<svg  height="40"  viewBox="0 0 779 77" fill="none" xmlns="http://www.w3.org/2000/svg">
<path d="M28.1136 47.5455H39.5682L45.9091 56.3409L50.0341 62.0682L60.7386 77H48.4659L41.2045 66.9773L38.3409 62.2045L28.1136 47.5455ZM66.5682 36.9091C65.3409 44.3182 62.9205 50.6364 59.3068 55.8636C55.7159 61.0682 51.3295 65.0568 46.1477 67.8295C40.9886 70.5795 35.4318 71.9545 29.4773 71.9545C23.2273 71.9545 17.8636 70.5 13.3864 67.5909C8.90909 64.6591 5.68182 60.4659 3.70455 55.0114C1.75 49.5568 1.40909 43.0114 2.68182 35.375C3.90909 27.9886 6.31818 21.6705 9.90909 16.4205C13.5 11.1705 17.8977 7.15909 23.1023 4.38636C28.3068 1.61363 33.9205 0.22727 39.9432 0.22727C46.1477 0.22727 51.4659 1.69318 55.8977 4.625C60.3523 7.53409 63.5568 11.7273 65.5114 17.2045C67.4886 22.6818 67.8409 29.25 66.5682 36.9091ZM54.125 35.375C54.9659 30.2159 54.8864 25.8636 53.8864 22.3182C52.9091 18.7727 51.1705 16.1023 48.6705 14.3068C46.1705 12.4886 43.0909 11.5795 39.4318 11.5795C35.4773 11.5795 31.8182 12.5682 28.4545 14.5455C25.1136 16.5 22.2727 19.3636 19.9318 23.1364C17.6136 26.9091 16.0227 31.5 15.1591 36.9091C14.25 42.0909 14.3068 46.4432 15.3295 49.9659C16.3523 53.4886 18.125 56.1477 20.6477 57.9432C23.1705 59.7159 26.25 60.6023 29.8864 60.6023C33.8182 60.6023 37.4545 59.625 40.7955 57.6705C44.1364 55.7159 46.9659 52.8636 49.2841 49.1136C51.625 45.3636 53.2386 40.7841 54.125 35.375ZM129.312 1.18182H141.96L134.392 46.7955C133.574 51.7955 131.665 56.1932 128.665 59.9886C125.688 63.7841 121.892 66.75 117.278 68.8864C112.665 71 107.528 72.0568 101.869 72.0568C96.1648 72.0568 91.3693 71 87.483 68.8864C83.5966 66.75 80.7898 63.7841 79.0625 59.9886C77.358 56.1932 76.9148 51.7955 77.733 46.7955L85.3011 1.18182H97.9489L90.5511 45.7386C90.0739 48.6477 90.2898 51.2386 91.1989 53.5114C92.1307 55.7614 93.6534 57.5341 95.767 58.8295C97.9034 60.125 100.574 60.7727 103.778 60.7727C106.983 60.7727 109.869 60.125 112.438 58.8295C115.006 57.5341 117.108 55.7614 118.744 53.5114C120.381 51.2386 121.438 48.6477 121.915 45.7386L129.312 1.18182ZM153.082 71H139.582L175.753 1.18182H191.366L204.389 71H190.889L181.514 15.5H180.969L153.082 71ZM158.06 43.625H194.878L193.173 53.7841H156.355L158.06 43.625ZM282.551 1.18182L270.96 71H259.71L234.722 23.4432H234.176L226.233 71H213.585L225.176 1.18182H236.494L261.449 48.7727H262.097L269.972 1.18182H282.551ZM291.491 11.7841L293.264 1.18182H348.969L347.196 11.7841H325.616L315.798 71H303.253L313.071 11.7841H291.491ZM403.719 1.18182H416.366L408.798 46.7955C407.98 51.7955 406.071 56.1932 403.071 59.9886C400.094 63.7841 396.298 66.75 391.685 68.8864C387.071 71 381.935 72.0568 376.276 72.0568C370.571 72.0568 365.776 71 361.889 68.8864C358.003 66.75 355.196 63.7841 353.469 59.9886C351.764 56.1932 351.321 51.7955 352.139 46.7955L359.707 1.18182H372.355L364.957 45.7386C364.48 48.6477 364.696 51.2386 365.605 53.5114C366.537 55.7614 368.06 57.5341 370.173 58.8295C372.31 60.125 374.98 60.7727 378.185 60.7727C381.389 60.7727 384.276 60.125 386.844 58.8295C389.412 57.5341 391.514 55.7614 393.151 53.5114C394.787 51.2386 395.844 48.6477 396.321 45.7386L403.719 1.18182ZM430.114 1.18182H445.591L457.966 51.7727H458.784L487.864 1.18182H503.341L491.75 71H479.614L487.591 23.0341H486.977L459.705 70.7955H450.67L439.352 22.9318H438.705L430.659 71H418.523L430.114 1.18182ZM529.335 71L540.926 1.18182H585.653L583.881 11.7841H551.801L548.665 30.7386H577.676L575.903 41.3409H546.892L541.983 71H529.335ZM585.585 71L597.176 1.18182H609.824L600.006 60.3977H630.756L628.983 71H585.585ZM695.562 1.18182H708.21L700.642 46.7955C699.824 51.7955 697.915 56.1932 694.915 59.9886C691.938 63.7841 688.142 66.75 683.528 68.8864C678.915 71 673.778 72.0568 668.119 72.0568C662.415 72.0568 657.619 71 653.733 68.8864C649.847 66.75 647.04 63.7841 645.312 59.9886C643.608 56.1932 643.165 51.7955 643.983 46.7955L651.551 1.18182H664.199L656.801 45.7386C656.324 48.6477 656.54 51.2386 657.449 53.5114C658.381 55.7614 659.903 57.5341 662.017 58.8295C664.153 60.125 666.824 60.7727 670.028 60.7727C673.233 60.7727 676.119 60.125 678.688 58.8295C681.256 57.5341 683.358 55.7614 684.994 53.5114C686.631 51.2386 687.688 48.6477 688.165 45.7386L695.562 1.18182ZM732.185 1.18182L743.366 26.75H743.912L763.548 1.18182H778.31L751.071 36.0909L767.06 71H752.639L741.321 45.6023H740.776L721.003 71H706.173L734.094 36.0909L718.037 1.18182H732.185Z" fill="white"/>
</svg>
